<?xml version="1.0" encoding="utf-8"?>
<!-- Generator: Adobe Illustrator 21.1.0, SVG Export Plug-In . SVG Version: 6.00 Build 0)  -->
<svg version="1.1" id="Layer_1" xmlns="http://www.w3.org/2000/svg" xmlns:xlink="http://www.w3.org/1999/xlink" x="0px" y="0px"
	 viewBox="0 0 150 87" style="enable-background:new 0 0 150 87;" xml:space="preserve">
<style type="text/css">
	.st0{fill:#FFFFFF;}
</style>
<path class="st0" d="M44.1,68.5c-4.4,0-5.3-4-4.2-9.4C42,48.4,50.8,30.7,59,30.7c4.4,0,5.1,4.2,4,9.6C60.9,50.9,52.2,68.5,44.1,68.5
	L44.1,68.5z M76.7,40.3c2-10.3-3.6-16.5-13.6-16.5c-8,0-16,4-22.9,10.3C33,41,28.3,49.1,26.5,58.1C24.4,68.8,29.8,75.3,40,75.3
	C56.4,75.3,73.3,57.7,76.7,40.3z"/>
<path class="st0" d="M24.5,68.1c-0.4-0.1-1-0.1-1.6,0.1c-3.8,0.8-4.7,0.9-6.1,0.6c-1.2-0.3-2.2-1.3-2.4-2.4c0-1,0.4-2.1,1.4-4.5
	L33.6,18c2.6-6.3,3.7-8.8,5.4-11.5c0.5-0.7,1-1.5,1.1-1.9C40.6,3.6,40,2.6,39,2.4c-1-0.2-2.2,0.1-3.9,1c-5.2,2.7-6.3,3.2-11.5,5.1
	c-3.5,1.2-4.1,1.5-4.4,2.4c-0.3,0.8,0,1.5,0.9,2.2c1.5,1.1,1.5,1.3,0.4,4.1L2.3,61.9c-1.5,3.7-1.8,5.7-1.3,7.6
	c0.7,2.5,3,4.4,6.4,5.1c3.4,0.7,7,0.3,11.7-1.4c4-1.5,5.8-2.6,6.3-3.7C25.6,69,25.2,68.3,24.5,68.1L24.5,68.1z M138.5,25.8h-5.2
	c3.3-8.6,4.8-13.3,5.1-14.1c0,0,0-0.1,0-0.1c2.8-7.4-4.7-9.6-8.9-10.3c-1.3-0.4-3-0.5-4.8-0.5C111.4,0.9,98,8.2,92,21.7
	c-0.6,1.5-1.3,3-2,4.6c-0.9,0-1.6,0-2.3,0.1H84c-3.3,0-4.3,4.2-4.3,4.2c-0.5,1.7,0.5,3.2,2.3,3.2h4.9c-1.6,3.8-12,30.6-13.5,34.5
	c-2.3,5.9-6.6,11.3-11.9,15.1c-0.7,0.7-1.1,0.8-1.3,1.5c-0.1,0.7,0.1,1.4,1.4,1.4c0.3,0,0.6-0.1,1-0.2c9.7-3.4,18.1-10.7,23.1-19.8
	c6.3-11.7,10-22.4,14.3-32.6c0.4,0,0.8,0,1.3,0c1.8,0,3.6,0.1,5.6,0.1c4.6,0,8.9-3.3,9.8-7.9l0.1-0.6c-3.5,0.5-6.5,0.7-9.5,0.7h-4
	c2.9-7.2,5.4-11.9,7.6-14.4c1.8-2,5.2-4,7.5-4c2.3,0,4.1,1.1,5.2,3.3c0.3,1.7,0.2,3.1-0.1,4.8c-1.1,5.7-7.3,21-11.1,29.4l-6.4,17
	c-1.5,3.7-1.8,5.7-1.3,7.6c0.7,2.5,3,4.4,6.4,5.1c3.4,0.7,7,0.3,11.7-1.4c4-1.5,5.8-2.6,6.3-3.7c0.2-0.6-0.2-1.3-0.8-1.5
	c-0.4-0.1-1-0.1-1.6,0.1c-3.8,0.8-4.7,0.9-6.1,0.6c-1.2-0.3-2.2-1.3-2.4-2.4c0-1-0.3-2.1,0.7-4.5c0,0,9.6-23.3,11.5-28.1
	c0.8-0.2,1.5-0.2,2.3-0.2c1.8,0,3.6,0.1,5.6,0.1c4.6,0,8.9-3.3,9.8-7.9l0.1-0.6C144.5,25.6,141.4,25.8,138.5,25.8L138.5,25.8z"/>
</svg>
